<svg width="1024" height="1024" viewBox="0 0 1024 1024" fill="none" xmlns="http://www.w3.org/2000/svg">
  <defs>
    <linearGradient id="shieldBg" x1="206" y1="150" x2="796" y2="862" gradientUnits="userSpaceOnUse">
      <stop stop-color="#21B493"/>
      <stop offset="1" stop-color="#067E83"/>
    </linearGradient>
    <linearGradient id="sunPanel" x1="560" y1="242" x2="848" y2="520" gradientUnits="userSpaceOnUse">
      <stop stop-color="#FFF06A"/>
      <stop offset="1" stop-color="#F3C400"/>
    </linearGradient>
    <linearGradient id="snowPanel" x1="456" y1="534" x2="786" y2="832" gradientUnits="userSpaceOnUse">
      <stop stop-color="#2AC6FF"/>
      <stop offset="1" stop-color="#0F8BFF"/>
    </linearGradient>
    <filter id="softShadow" x="132" y="112" width="760" height="824" filterUnits="userSpaceOnUse" color-interpolation-filters="sRGB">
      <feFlood flood-opacity="0" result="BackgroundImageFix"/>
      <feColorMatrix in="SourceAlpha" type="matrix" values="0 0 0 0 0 0 0 0 0 0 0 0 0 0 0 0 0 0 127 0" result="hardAlpha"/>
      <feOffset dy="18"/>
      <feGaussianBlur stdDeviation="24"/>
      <feColorMatrix type="matrix" values="0 0 0 0 0.00784314 0 0 0 0 0.266667 0 0 0 0 0.294118 0 0 0 0.22 0"/>
      <feBlend mode="normal" in2="BackgroundImageFix" result="effect1_dropShadow_1_1"/>
      <feBlend mode="normal" in="SourceGraphic" in2="effect1_dropShadow_1_1" result="shape"/>
    </filter>
  </defs>

  <g filter="url(#softShadow)">
    <path d="M512 136C583.574 180.626 671.169 212.743 782 231V471C782 644.175 671.702 792.908 512 868C352.298 792.908 242 644.175 242 471V231C352.831 212.743 440.426 180.626 512 136Z" fill="url(#shieldBg)"/>
    <path d="M512 166C577.429 204.14 656.027 232.383 754 250.688V463.664C754 617.094 660.561 748.248 512 820C363.439 748.248 270 617.094 270 463.664V250.688C367.973 232.383 446.571 204.14 512 166Z" fill="url(#shieldBg)" stroke="#0B746E" stroke-width="6"/>

    <path d="M523 259.5L724 302V553L523 448V259.5Z" fill="url(#sunPanel)"/>
    <path d="M523 468.5L724 573V708.5C664.302 768.115 593.864 811.869 512 848C411.711 805.288 340.355 748.577 300 704V582L436 500L523 468.5Z" fill="url(#snowPanel)"/>
    <path d="M523 259V468.5" stroke="#FFFDF4" stroke-width="18" stroke-linecap="round"/>
    <path d="M432 499.5L724 649" stroke="#FFFDF4" stroke-width="18" stroke-linecap="round"/>

    <g fill="#F7F7F7" stroke="#D6A600" stroke-width="4">
      <circle cx="649" cy="394" r="55" fill="#F3F3F3" stroke="none"/>
    </g>
    <g stroke="#F7F7F7" stroke-width="16" stroke-linecap="round">
      <path d="M649 304V333"/>
      <path d="M649 455V484"/>
      <path d="M560 394H589"/>
      <path d="M709 394H738"/>
      <path d="M585.5 330.5L605.5 350.5"/>
      <path d="M692.5 437.5L712.5 457.5"/>
      <path d="M712.5 330.5L692.5 350.5"/>
      <path d="M605.5 437.5L585.5 457.5"/>
    </g>

    <g stroke="#F7F7F7" stroke-width="16" stroke-linecap="round" stroke-linejoin="round">
      <path d="M598 650H748"/>
      <path d="M673 575V725"/>
      <path d="M620 597L726 703"/>
      <path d="M726 597L620 703"/>
      <path d="M673 575L650 602"/>
      <path d="M673 575L696 602"/>
      <path d="M673 725L650 698"/>
      <path d="M673 725L696 698"/>
      <path d="M598 650L629 632"/>
      <path d="M598 650L629 668"/>
      <path d="M748 650L717 632"/>
      <path d="M748 650L717 668"/>
    </g>

    <g>
      <path d="M428 291C404.252 291 385 310.252 385 334V575.872C363.318 591.295 349 616.639 349 645.327C349 692.311 387.089 730.4 434.073 730.4C481.057 730.4 519.145 692.311 519.145 645.327C519.145 616.652 504.84 591.318 483.176 575.894V334C483.176 310.252 463.924 291 440.176 291H428Z" fill="#F2F4F5" stroke="#0E7A76" stroke-width="8"/>
      <path d="M435 349C423.402 349 414 358.402 414 370V602.664C394.836 612.279 382 631.921 382 654.56C382 686.647 408.013 712.66 440.1 712.66C472.187 712.66 498.2 686.647 498.2 654.56C498.2 631.935 485.38 612.303 466.235 602.683V370C466.235 358.402 456.833 349 445.235 349H435Z" fill="#1AA098" stroke="#F2F4F5" stroke-width="18"/>
      <path d="M440 390V642" stroke="#F2F4F5" stroke-width="18" stroke-linecap="round"/>
      <circle cx="440" cy="658" r="34" fill="#FFD128" stroke="#F2F4F5" stroke-width="16"/>
    </g>

    <g stroke="#F2F4F5" stroke-width="14" stroke-linecap="round">
      <path d="M310 370H344"/>
      <path d="M310 425H344"/>
    </g>
  </g>
</svg>
